<?xml version="1.0" encoding="utf-8"?>
<!-- Generator: Adobe Illustrator 15.0.0, SVG Export Plug-In . SVG Version: 6.00 Build 0)  -->
<!DOCTYPE svg PUBLIC "-//W3C//DTD SVG 1.1//EN" "http://www.w3.org/Graphics/SVG/1.1/DTD/svg11.dtd">
<svg version="1.1" id="Layer_1" xmlns="http://www.w3.org/2000/svg" xmlns:xlink="http://www.w3.org/1999/xlink" x="0px" y="0px"
	 width="1000px" height="200px" viewBox="0 0 1000 200" enable-background="new 0 0 1000 200" xml:space="preserve">
<rect x="92.459" y="39.666" fill="#0D71B9" width="24.602" height="17.894"/>
<rect x="25.363" y="77.688" width="26.838" height="17.893"/>
<rect x="5.234" y="113.471" width="24.602" height="17.893"/>
<rect x="70.095" y="149.258" fill="#0D71B9" width="24.603" height="17.892"/>
<rect x="112.59" y="149.258" width="51.44" height="17.892"/>
<rect x="47.729" y="113.471" fill="#0D71B9" width="116.301" height="17.893"/>
<rect x="70.095" y="77.688" width="93.936" height="17.893"/>
<polygon fill="#0D71B9" points="254.648,149.258 222.18,149.258 222.18,167.149 241.631,167.149 "/>
<polygon fill="#1D1D1B" points="277.125,113.471 222.18,113.471 222.18,131.363 264.113,131.363 "/>
<polygon fill="#0D71B9" points="268.844,77.688 222.18,77.688 222.18,95.581 281.859,95.581 "/>
<g>
	<path fill="#0D71B9" d="M636.15,59.099c-8.424,0-15.348-6.925-15.348-15.349s6.924-15.161,15.348-15.161
		s15.158,6.738,15.158,15.161S644.574,59.099,636.15,59.099z M623.982,168.787v-97.52h24.335v97.52H623.982z"/>
	<path fill="#0D71B9" d="M724.347,97.847c-3.747-3.745-6.928-5.804-12.919-5.804c-7.482,0-15.723,5.615-15.723,17.971v58.773
		h-24.331v-97.52h23.768v9.358c4.681-5.615,14.042-10.481,24.525-10.481c9.545,0,16.283,2.432,23.023,9.171L724.347,97.847z"/>
	<path fill="#0D71B9" d="M767.794,127.606c0,12.543,7.671,21.717,21.339,21.717c10.668,0,15.906-3,22.088-9.174l14.784,14.415
		c-9.919,9.92-19.466,15.349-37.062,15.349c-23.024,0-45.111-10.483-45.111-49.979c0-31.82,17.223-49.79,42.49-49.79
		c27.143,0,42.489,19.841,42.489,46.609v10.854H767.794z M802.607,100.467c-2.618-5.803-8.05-10.109-16.285-10.109
		c-8.234,0-13.663,4.306-16.284,10.109c-1.497,3.556-2.056,6.177-2.244,10.482h37.062
		C804.67,106.645,804.107,104.023,802.607,100.467z"/>
	<path fill="#0D71B9" d="M493.261,35.145h49.45c11.15,0,19.653,0.853,25.501,2.56c7.862,2.317,14.596,6.429,20.201,12.341
		c5.605,5.911,9.871,13.145,12.799,21.708c2.92,8.562,4.388,19.117,4.388,31.669c0,11.03-1.375,20.534-4.118,28.518
		c-3.349,9.753-8.134,17.643-14.347,23.674c-4.692,4.569-11.03,8.134-19.012,10.693c-5.976,1.893-13.956,2.836-23.949,2.836h-50.913
		V35.145z M520.317,57.813v88.755h20.202c7.555,0,13.008-0.428,16.361-1.282c4.387-1.098,8.025-2.954,10.921-5.577
		c2.895-2.618,5.256-6.929,7.085-12.934c1.829-5.999,2.742-14.178,2.742-24.542c0-10.357-0.913-18.309-2.742-23.854
		c-1.829-5.544-4.387-9.871-7.681-12.979c-3.289-3.106-7.463-5.211-12.521-6.307c-3.779-0.852-11.182-1.279-22.212-1.279H520.317z"
		/>
	<path fill="#0D71B9" d="M992.659,72.073v20.474h-17.548v39.12c0,7.924,0.169,12.538,0.503,13.847
		c0.337,1.314,1.098,2.396,2.283,3.247c1.19,0.852,2.635,1.279,4.343,1.279c2.376,0,5.818-0.821,10.331-2.47l2.194,19.928
		c-5.975,2.559-12.754,4.299-20.294,3.84c-23.398-1.425-23.093-22.18-23.093-36.471v-42.32l-14.953,0.17V72.243l14.953-0.17V48.698
		l23.732-12.945v36.321H992.659z"/>
	<path fill="#0D71B9" d="M904.941,132.021c-0.78,3.479-1.975,6.317-3.627,8.668c-4.789,5.037-8.971,7.202-14.951,7.299
		c-5.979-0.097-10.16-2.262-14.949-7.299c-3.254-4.629-4.752-11.123-4.752-20.756c0-9.62,1.495-15.947,4.74-20.557
		c4.793-5.043,8.979-7.214,14.961-7.313c5.984,0.099,10.17,2.27,14.963,7.313c1.946,2.761,3.253,6.164,3.993,10.5h24.5
		c-3.775-31.219-25.333-39.733-43.033-39.733c-0.146,0-0.278,0.016-0.423,0.017c-0.144-0.001-0.276-0.017-0.421-0.017
		c-19.47,0-43.616,10.293-43.616,49.79s24.146,49.979,43.616,49.979c0.145,0,0.277-0.017,0.421-0.019
		c0.145,0.002,0.277,0.019,0.423,0.019c17.307,0,38.297-8.304,42.747-37.892H904.941z"/>
</g>
<polygon points="344.05,35.194 318.543,78.388 293.17,35.194 137.19,35.194 137.19,57.752 179.687,57.733 179.687,169.386 
	206.524,169.386 206.524,57.723 276.269,57.691 303.129,98.52 257.474,169.386 289.725,169.386 319.333,121.09 348.851,169.386 
	381.278,169.386 335.771,98.723 361.292,57.538 410.052,57.454 410.052,169.386 436.891,169.386 436.891,57.454 472.673,57.454 
	472.673,55.322 472.673,50.591 472.673,35.194 "/>
</svg>
