<?xml version="1.0" encoding="utf-8"?>
<!-- Generator: Adobe Illustrator 15.0.0, SVG Export Plug-In . SVG Version: 6.00 Build 0)  -->
<!DOCTYPE svg PUBLIC "-//W3C//DTD SVG 1.1//EN" "http://www.w3.org/Graphics/SVG/1.1/DTD/svg11.dtd">
<svg version="1.1" id="Layer_1" xmlns="http://www.w3.org/2000/svg" xmlns:xlink="http://www.w3.org/1999/xlink" x="0px" y="0px"
	 width="300px" height="100px" viewBox="0 0 300 100" enable-background="new 0 0 300 100" xml:space="preserve">
<g>
	<rect x="55.448" y="38.756" fill="#0071BC" width="4.811" height="3.499"/>
	<rect x="42.33" y="46.189" width="5.248" height="3.499"/>
	<rect x="38.394" y="53.187" width="4.811" height="3.498"/>
	<rect x="51.075" y="60.183" fill="#0071BC" width="4.811" height="3.499"/>
	<rect x="59.384" y="60.183" width="10.058" height="3.499"/>
	<rect x="46.703" y="53.187" fill="#0071BC" width="22.74" height="3.498"/>
	<rect x="51.075" y="46.189" width="18.367" height="3.499"/>
	<polygon fill="#0071BC" points="87.16,60.183 80.813,60.183 80.813,63.682 84.616,63.682 	"/>
	<polygon points="91.556,53.187 80.813,53.187 80.813,56.685 89.011,56.685 	"/>
	<polygon fill="#0071BC" points="89.936,46.189 80.813,46.189 80.813,49.688 92.481,49.688 	"/>
	<path fill="#0071BC" d="M133.726,64.119V37.881h9.086c2.025,0,3.571,0.174,4.636,0.422c1.491,0.344,2.766,0.992,3.818,1.89
		c1.373,1.162,2.4,2.656,3.082,4.462c0.681,1.805,1.021,3.875,1.021,6.196c0,1.978-0.231,3.734-0.693,5.261
		s-1.055,2.793-1.777,3.793c-0.722,1-1.512,1.788-2.37,2.363c-0.858,0.574-1.894,1.06-3.108,1.356
		c-1.214,0.296-2.608,0.494-4.183,0.494H133.726z M137.224,61.058h5.623c1.717,0,3.064-0.216,4.042-0.536
		c0.976-0.319,1.754-0.796,2.336-1.378c0.817-0.816,1.452-1.929,1.909-3.309c0.455-1.378,0.684-3.059,0.684-5.023
		c0-2.723-0.446-4.819-1.342-6.282c-0.893-1.462-1.979-2.5-3.258-2.998c-0.924-0.354-2.41-0.59-4.458-0.59h-5.534V61.058z"/>
	<path fill="#0071BC" d="M160.403,64.119V37.881h3.497v26.238H160.403z"/>
	<path fill="#0071BC" d="M169.586,64.119V37.881h11.601c2.318,0,4.083,0.284,5.291,0.751s2.172,1.319,2.895,2.502
		c0.723,1.185,1.084,2.505,1.084,3.938c0,1.847-0.598,3.411-1.793,4.677c-1.197,1.268-3.044,2.075-5.542,2.419
		c0.911,0.438,1.604,0.872,2.078,1.297c1.006,0.924,1.959,2.132,2.859,3.516l4.528,7.138h-4.334l-3.445-5.468
		c-1.005-1.563-1.836-2.782-2.486-3.612c-0.65-0.829-1.235-1.421-1.75-1.753c-0.514-0.332-1.037-0.641-1.57-0.77
		c-0.392-0.085-1.031-0.205-1.918-0.205h-3.999v11.808H169.586z M173.084,49.688h7.408c1.574,0,2.806-0.27,3.695-0.596
		c0.887-0.326,1.563-0.9,2.023-1.618c0.461-0.716,0.694-1.521,0.694-2.361c0-1.231-0.449-2.216-1.343-3.009
		c-0.893-0.792-2.307-1.162-4.237-1.162h-8.241V49.688z"/>
	<path fill="#0071BC" d="M196.698,64.119V37.881h18.805v3.061h-15.306v7.872h14.431v3.061h-14.431v9.184h16.179v3.062H196.698z"/>
	<path fill="#0071BC" d="M238.582,54.89l3.445,0.871c-0.723,2.829-2.021,4.986-3.898,6.472c-1.877,1.487-4.171,2.23-6.882,2.23
		c-2.808,0-5.089-0.573-6.846-1.715c-1.759-1.143-3.097-2.798-4.015-4.964c-0.917-2.166-1.377-4.494-1.377-6.98
		c0-2.711,0.518-5.076,1.553-7.094c1.037-2.019,2.514-3.553,4.425-4.601c1.911-1.047,4.016-1.572,6.312-1.572
		c2.605,0,4.796,0.665,6.573,1.991c1.776,1.325,3.013,3.19,3.712,5.593l-3.394,0.8c-0.604-1.894-1.479-3.274-2.627-4.139
		c-1.149-0.864-2.594-1.297-4.334-1.297c-2.001,0-3.674,0.48-5.017,1.439c-1.345,0.96-2.29,2.247-2.835,3.862
		c-0.544,1.617-0.814,3.283-0.814,5c0,2.213,0.321,4.147,0.966,5.799c0.646,1.65,1.65,2.886,3.011,3.702
		c1.362,0.816,2.836,1.227,4.422,1.227c1.931,0,3.565-0.558,4.904-1.67C237.202,58.732,238.107,57.079,238.582,54.89z"/>
	<path fill="#0071BC" d="M251.361,64.119V40.942h-8.31v-3.061h20.555v3.061h-8.747v23.177H251.361z"/>
	<polygon points="105.031,37.881 104.427,37.881 104.427,38.177 99.654,46.326 94.693,37.881 64.194,37.881 64.194,42.292 
		72.503,42.288 72.503,64.119 77.751,64.119 77.751,42.286 91.388,42.279 96.639,50.263 87.713,64.119 94.019,64.119 99.809,54.677 
		105.58,64.119 111.92,64.119 103.022,50.302 108.453,41.816 117.546,41.816 117.546,64.119 122.794,64.119 122.794,41.816 
		129.79,41.816 129.79,37.881 	"/>
</g>
</svg>
